HIERARCHY
ROOT Hips
{
	OFFSET	0.000000	0.000000	0.000000
	CHANNELS 6 Xposition Yposition Zposition Zrotation Xrotation Yrotation
	JOINT LeftUpLeg
	{
		OFFSET	12.830505	-7.049846	-1.643436
		CHANNELS 3 Zrotation Xrotation Yrotation
		JOINT LeftLeg
		{
			OFFSET	0.620834	-39.957500	-1.919341
			CHANNELS 3 Zrotation Xrotation Yrotation
			JOINT LeftFoot
			{
				OFFSET	-0.413890	-44.704761	-3.870325
				CHANNELS 3 Zrotation Xrotation Yrotation
				JOINT LeftFootHeel
				{
					OFFSET	0.164738	-8.918193	-6.555130
					CHANNELS 3 Zrotation Xrotation Yrotation
					End Site
					{
						OFFSET	-0.604053	0.000000	21.044330
					}
				}
			}
		}
	}
	JOINT RightUpLeg
	{
		OFFSET	-12.830505	-7.049846	-1.643436
		CHANNELS 3 Zrotation Xrotation Yrotation
		JOINT RightLeg
		{
			OFFSET	-0.620834	-39.957500	-1.919341
			CHANNELS 3 Zrotation Xrotation Yrotation
			JOINT RightFoot
			{
				OFFSET	0.413890	-44.704761	-3.870325
				CHANNELS 3 Zrotation Xrotation Yrotation
				JOINT RightFootHeel
				{
					OFFSET	-0.164738	-8.918193	-6.555130
					CHANNELS 3 Zrotation Xrotation Yrotation
					End Site
					{
						OFFSET	0.604053	0.000000	21.044330
					}
				}
			}
		}
	}
	JOINT Spine
	{
		OFFSET	0.000000	12.498170	1.820647
		CHANNELS 3 Zrotation Xrotation Yrotation
		JOINT Spine1
		{
			OFFSET	0.000000	7.620000	0.000000
			CHANNELS 3 Zrotation Xrotation Yrotation
			JOINT LeftShoulder
			{
				OFFSET	9.167800	29.136339	-5.551221
				CHANNELS 3 Zrotation Xrotation Yrotation
				JOINT LeftArm
				{
					OFFSET	12.133453	-3.880866	1.461963
					CHANNELS 3 Zrotation Xrotation Yrotation
					JOINT LeftForeArm
					{
						OFFSET	2.507115	-31.664908	-1.069404
						CHANNELS 3 Zrotation Xrotation Yrotation
						JOINT LeftHand
						{
							OFFSET	4.116172	-24.512624	5.009439
							CHANNELS 3 Zrotation Xrotation Yrotation
							End Site
							{
								OFFSET	-0.213136	-10.931856	2.182134
							}
						}
					}
				}
			}
			JOINT RightShoulder
			{
				OFFSET	-9.167800	29.136339	-5.551221
				CHANNELS 3 Zrotation Xrotation Yrotation
				JOINT RightArm
				{
					OFFSET	-12.133453	-3.880866	1.461963
					CHANNELS 3 Zrotation Xrotation Yrotation
					JOINT RightForeArm
					{
						OFFSET	-2.507115	-31.664908	-1.069404
						CHANNELS 3 Zrotation Xrotation Yrotation
						JOINT RightHand
						{
							OFFSET	-4.116172	-24.512624	5.009439
							CHANNELS 3 Zrotation Xrotation Yrotation
							End Site
							{
								OFFSET	0.213136	-10.931856	2.182134
							}
						}
					}
				}
			}
			JOINT Neck
			{
				OFFSET	0.000000	32.926272	-3.635654
				CHANNELS 3 Zrotation Xrotation Yrotation
				JOINT Head
				{
					OFFSET	0.000000	12.481178	4.646143
					CHANNELS 3 Zrotation Xrotation Yrotation
					End Site
					{
						OFFSET	0.000000	17.715204	-2.222063
					}
				}
			}
		}
	}
}
MOTION
Frames:     14
Frame Time: 0.016667
0.000000	99.025621	0.000000	-1.742581	2.865623	43.122765	13.270683	-21.846067	16.557680	7.067358	34.153145	-7.700793	-11.338505	-14.347136	-1.873954	0.	0.	0.	-17.219540	-20.997536	-17.277132	-0.646805	31.036386	0.582601	9.068453	-7.189797	-4.491062	0.	0.	0.	-0.000000	0.000001	0.000002	-3.710765	23.172771	3.011939	13.104733	-5.638929	4.113394	-15.885674	-25.746109	-11.240509	-109.175514	-34.078781	-76.928703	-7.782400	3.598166	-0.024317	-8.912621	-4.265473	1.293777	-33.056072	-23.856268	-35.269707	-40.670586	-117.989487	-47.436298	-7.914183	1.099113	18.034538	-1.339285	-1.314872	-11.982495	13.983470	-8.342056	-14.842486	
-0.000937	99.025020	-0.001558	-1.742581	2.865623	43.122765	13.271717	-21.839500	16.600002	7.092226	34.140755	-7.739348	-11.341262	-14.343801	-1.884626	0.	0.	0.	-17.219719	-21.000149	-17.264360	-0.639716	31.039078	0.567663	9.068453	-7.189795	-4.491059	0.	0.	0.	-0.000000	0.000001	0.000002	-3.714134	23.173311	3.013759	13.111732	-5.623134	4.110627	-15.834197	-25.696541	-11.200406	-109.264198	-34.063126	-76.999702	-7.824575	3.605442	0.004275	-8.910542	-4.263001	1.294498	-33.044300	-23.828415	-35.249336	-40.513729	-118.059860	-47.277859	-7.880947	1.148929	18.050856	-1.355494	-1.315085	-11.976874	13.967106	-8.442241	-14.862483	
0.008614	99.019633	-0.014374	-1.742581	2.865623	43.122765	13.270210	-21.855768	16.647667	7.131952	34.149857	-7.799449	-11.341261	-14.343801	-1.884628	0.	0.	0.	-17.243271	-21.003923	-17.235477	-0.597442	31.049601	0.524226	9.068451	-7.189796	-4.491060	0.	0.	0.	-0.000000	0.000001	0.000002	-3.714134	23.173311	3.013759	13.111732	-5.623134	4.110627	-15.807522	-25.658421	-11.180934	-109.306778	-34.048470	-77.045486	-7.911182	3.565086	0.012216	-8.910542	-4.263001	1.294498	-33.035095	-23.809673	-35.247189	-40.482548	-118.085518	-47.239693	-7.855825	1.145591	18.054214	-1.355494	-1.315085	-11.976874	13.948578	-8.487729	-14.865868	
0.008614	99.019633	-0.014374	-1.742581	2.865623	43.122765	13.270210	-21.855768	16.647667	7.131952	34.149857	-7.799449	-11.341261	-14.343801	-1.884628	0.	0.	0.	-17.243271	-21.003923	-17.235477	-0.597442	31.049601	0.524226	9.068451	-7.189796	-4.491060	0.	0.	0.	-0.000000	0.000001	0.000002	-3.714134	23.173311	3.013759	13.111732	-5.623134	4.110627	-15.807522	-25.658421	-11.180934	-109.306778	-34.048470	-77.045486	-7.911182	3.565086	0.012216	-8.910542	-4.263001	1.294498	-33.035095	-23.809673	-35.247189	-40.482548	-118.085518	-47.239693	-7.855825	1.145591	18.054214	-1.355494	-1.315085	-11.976874	13.948578	-8.487729	-14.865868	
0.024143	99.005215	-0.049132	-1.742581	2.865623	43.122765	13.270201	-21.859629	16.707104	7.182765	34.152580	-7.875737	-11.348646	-14.350955	-1.886959	0.	0.	0.	-17.299593	-21.024897	-17.218470	-0.531235	31.085575	0.481199	9.068451	-7.189795	-4.491062	0.	0.	0.	-0.000000	0.000001	0.000002	-3.714134	23.173311	3.013759	13.111732	-5.623134	4.110627	-15.764754	-25.666357	-11.156809	-109.344688	-34.043285	-77.042885	-8.073040	3.582847	0.009239	-8.910542	-4.263001	1.294498	-33.020126	-23.779268	-35.243698	-40.440029	-118.112030	-47.198723	-7.867495	1.141107	18.085634	-1.355494	-1.315085	-11.976874	13.951838	-8.526479	-14.881533	
0.013967	99.000806	-0.060636	-1.742581	2.865623	43.122765	13.269230	-21.865770	16.667475	7.166708	34.181080	-7.831391	-11.353651	-14.368833	-1.892983	0.	0.	0.	-17.303534	-21.047613	-17.238026	-0.545516	31.108179	0.502634	9.068450	-7.189799	-4.491059	0.	0.	0.	-0.000000	0.000001	0.000002	-3.712218	23.182713	3.014131	13.109577	-5.632441	4.111639	-15.733225	-25.691961	-11.140557	-109.364418	-34.047344	-77.019493	-8.097760	3.580969	0.009390	-8.912987	-4.272010	1.291938	-33.015434	-23.769737	-35.242596	-40.415848	-118.124397	-47.175446	-7.939821	1.140036	18.056429	-1.325999	-1.325237	-11.988404	13.922373	-8.529411	-14.869425	
0.017378	99.003151	-0.054631	-1.742581	2.865623	43.122765	13.268098	-21.872850	16.621862	7.145727	34.216690	-7.778653	-11.357208	-14.391796	-1.900700	0.	0.	0.	-17.302917	-21.037764	-17.292343	-0.575988	31.098080	0.566217	9.068451	-7.189795	-4.491061	0.	0.	0.	-0.000000	0.000001	0.000002	-3.710330	23.192024	3.014512	13.107450	-5.641663	4.112637	-15.698895	-25.719181	-11.122790	-109.386154	-34.051514	-76.994751	-8.093746	3.573585	0.010542	-8.915406	-4.280931	1.289393	-33.011875	-23.771189	-35.240803	-40.412247	-118.126808	-47.168407	-7.994401	1.115060	18.031157	-1.306731	-1.317663	-11.991032	13.905811	-8.549228	-14.862604	
0.017378	99.003151	-0.054631	-1.742581	2.865623	43.122765	13.268098	-21.872850	16.621862	7.145727	34.216690	-7.778653	-11.357208	-14.391796	-1.900700	0.	0.	0.	-17.302917	-21.037764	-17.292343	-0.575988	31.098080	0.566217	9.068451	-7.189795	-4.491061	0.	0.	0.	-0.000000	0.000001	0.000002	-3.710330	23.192024	3.014512	13.107450	-5.641663	4.112637	-15.698895	-25.719181	-11.122790	-109.386154	-34.051514	-76.994751	-8.093746	3.573585	0.010542	-8.915406	-4.280931	1.289393	-32.996323	-23.777489	-35.232990	-40.339344	-118.158966	-47.082668	-8.004480	1.123106	18.021275	-1.299159	-1.306525	-11.989788	13.901015	-8.561584	-14.860622	
0.022467	99.006165	-0.046085	-1.742689	2.865292	43.119408	13.268257	-21.882769	16.596857	7.145226	34.278515	-7.751375	-11.364595	-14.439739	-1.913424	0.	0.	0.	-17.300497	-21.025373	-17.358246	-0.614764	31.084482	0.647448	9.068451	-7.189791	-4.491060	0.	0.	0.	-0.000000	-0.000000	-0.000001	-3.711466	23.191965	3.018167	13.107449	-5.641664	4.112635	-15.624230	-25.696398	-11.075747	-109.286560	-34.068302	-76.918983	-8.030952	3.424533	-0.013104	-8.915404	-4.280931	1.289390	-32.976589	-23.785484	-35.223083	-40.211777	-118.211121	-46.929321	-8.030960	1.158073	18.048405	-1.283834	-1.306862	-11.994674	13.886831	-8.563102	-14.854795	
0.023407	99.005942	-0.044910	-1.742906	2.864585	43.112438	13.271594	-21.880806	16.604103	7.150768	34.287510	-7.760182	-11.366970	-14.450196	-1.909608	0.	0.	0.	-17.297251	-21.027103	-17.350973	-0.614764	31.084484	0.647450	9.068450	-7.189794	-4.491059	0.	0.	0.	0.000000	-0.000000	0.000002	-3.713819	23.191881	3.025785	13.107450	-5.641662	4.112637	-15.608170	-25.673407	-11.063602	-109.311363	-34.055042	-76.945793	-7.948001	3.468762	0.041401	-8.915404	-4.280930	1.289391	-32.971748	-23.786215	-35.207172	-40.144630	-118.217560	-46.821255	-8.050638	1.173751	18.067081	-1.264814	-1.307268	-12.000735	13.869009	-8.571178	-14.849566	
0.025560	99.005448	-0.042202	-1.743410	2.862986	43.096542	13.279199	-21.876352	16.620581	7.165570	34.299362	-7.781696	-11.374835	-14.465933	-1.898999	0.	0.	0.	-17.289852	-21.031044	-17.334442	-0.614763	31.084482	0.647445	9.068451	-7.189791	-4.491063	0.	0.	0.	-0.000000	0.000000	-0.000003	-3.719189	23.191671	3.043110	13.107446	-5.641664	4.112632	-15.534555	-25.639948	-11.014984	-109.234116	-34.062553	-76.893692	-8.000315	3.396054	0.075655	-8.915404	-4.280930	1.289390	-32.950138	-23.798248	-35.150581	-40.017189	-118.202095	-46.522335	-8.063435	1.197148	18.184710	-1.255445	-1.307475	-12.003723	13.854170	-8.587200	-14.847137	
0.026815	99.005138	-0.040630	-1.743704	2.862056	43.087273	13.283635	-21.873753	16.630211	7.178309	34.309742	-7.801735	-11.381195	-14.479945	-1.888354	0.	0.	0.	-17.285540	-21.033350	-17.324780	-0.614764	31.084484	0.647449	9.068451	-7.189795	-4.491058	0.	0.	0.	0.000000	-0.000000	0.000003	-3.722321	23.191549	3.053234	13.107449	-5.641665	4.112636	-15.417117	-25.584499	-10.932848	-109.272377	-34.041348	-76.909393	-7.980838	3.517838	0.167541	-8.915403	-4.280932	1.289392	-32.939144	-23.808104	-35.125580	-39.932640	-118.202667	-46.315994	-8.053136	1.209359	18.282549	-1.247172	-1.307655	-12.006352	13.844789	-8.590619	-14.843733	
0.031209	99.004304	-0.034991	-1.744681	2.858939	43.056347	13.298426	-21.865059	16.662294	7.181284	34.312157	-7.806396	-11.382689	-14.483216	-1.885900	0.	0.	0.	-17.271099	-21.040390	-17.295832	-0.616578	31.083853	0.651257	9.068452	-7.189794	-4.491061	0.	0.	0.	0.000000	0.000000	0.000001	-3.732769	23.191139	3.086974	13.107447	-5.641664	4.112635	-15.264169	-25.493404	-10.783265	-108.927101	-34.210957	-76.751564	-8.263058	3.300918	0.140604	-8.915403	-4.280932	1.289389	-32.928185	-23.809551	-35.083584	-39.536930	-118.355064	-45.591568	-7.986487	1.328404	18.561447	-1.230217	-1.308036	-12.011739	13.831037	-8.593096	-14.834667	
0.036972	99.004382	-0.027038	-1.745665	2.855817	43.025318	13.313260	-21.856348	16.694479	7.181287	34.312164	-7.806393	-11.382689	-14.483214	-1.885896	0.	0.	0.	-17.256380	-21.043604	-17.287107	-0.629732	31.079247	0.678840	9.068450	-7.189800	-4.491063	0.	0.	0.	-0.000000	-0.000000	0.000001	-3.743248	23.190725	3.120823	13.107450	-5.641665	4.112638	-14.967319	-25.331348	-10.477839	-108.904839	-34.174259	-76.764114	-8.379877	3.257375	0.153240	-8.915402	-4.280933	1.289393	-32.918884	-23.760157	-35.096497	-39.270584	-118.657860	-45.174316	-7.890512	1.332731	18.694370	-1.229173	-1.309028	-12.008649	13.836512	-8.599440	-14.825498	
